<svg width="15" height="22" viewBox="0 0 15 22" fill="none" xmlns="http://www.w3.org/2000/svg">
<path d="M8.31112 0H7.0094V22H8.31112C11.7401 22 14.5192 17.075 14.5192 11C14.5192 4.92503 11.7401 0 8.31112 0Z" fill="#DB6402"/>
<g style="mix-blend-mode:multiply">
<path d="M7.0094 21.4033V22H8.31112C9.76756 22 11.1061 21.1087 12.1653 19.6207L7.00983 19.7052V21.4033H7.0094Z" fill="#DBA97F"/>
</g>
<g style="mix-blend-mode:soft-light">
<path d="M9.75937 7.51941L14.1883 7.45603C13.8955 5.93152 13.4198 4.55876 12.8064 3.41779L9.73193 3.46196L9.75937 7.51941Z" fill="white"/>
</g>
<g style="mix-blend-mode:soft-light">
<path d="M9.73158 2.68919L12.3513 2.65205C12.2171 2.4478 12.0783 2.2538 11.9343 2.07068L9.72729 2.10205L9.73115 2.68919H9.73158Z" fill="white"/>
</g>
<path d="M7.00939 22C10.438 22 13.2175 17.0751 13.2175 11C13.2175 4.92487 10.438 0 7.00939 0C3.58074 0 0.80127 4.92487 0.80127 11C0.80127 17.0751 3.58074 22 7.00939 22Z" fill="#FEE475"/>
<path d="M7.00941 21.6389C10.3256 21.6389 13.0139 16.8757 13.0139 11C13.0139 5.12433 10.3256 0.361145 7.00941 0.361145C3.6932 0.361145 1.00488 5.12433 1.00488 11C1.00488 16.8757 3.6932 21.6389 7.00941 21.6389Z" fill="#FED425"/>
<g style="mix-blend-mode:soft-light">
<path d="M4.03652 20.2412L12.6848 7.52649C12.3907 6.01927 11.912 4.66572 11.2952 3.55164L2.08716 17.0891C2.59636 18.3786 3.262 19.4581 4.03652 20.2412Z" fill="white"/>
</g>
<g style="mix-blend-mode:soft-light">
<path d="M12.8056 13.7782L7.48389 21.6024C10.0457 21.2471 12.1558 18.045 12.8056 13.7782Z" fill="white"/>
</g>
<g style="mix-blend-mode:soft-light">
<path d="M1.27191 7.85684L6.32147 0.4328C5.71583 0.555094 5.13763 0.837457 4.60057 1.25492L2.04857 5.00696C1.71425 5.87389 1.45022 6.83239 1.27148 7.85748L1.27191 7.85684Z" fill="white"/>
</g>
<g style="mix-blend-mode:soft-light">
<path d="M1.75361 16.144L10.8322 2.79612C10.7229 2.63605 10.6093 2.48494 10.4936 2.33832L1.56116 15.4711C1.62116 15.6997 1.68503 15.9244 1.75361 16.144Z" fill="white"/>
</g>
<g style="mix-blend-mode:soft-light">
<path d="M7.00939 0.402095C10.4002 0.402095 13.1541 5.21892 13.2149 11.201C13.2158 11.1338 13.2179 11.0672 13.2179 11C13.2179 4.92503 10.4383 0 7.00939 0C3.58043 0 0.80127 4.92503 0.80127 11C0.80127 11.0672 0.803413 11.1338 0.80427 11.201C0.865134 5.21892 3.61901 0.402095 7.00939 0.402095Z" fill="white"/>
</g>
<g style="mix-blend-mode:soft-light">
<path d="M7.14783 18.8652C9.50651 18.8652 11.4186 15.4771 11.4186 11.2977C11.4186 7.11835 9.50651 3.73029 7.14783 3.73029C4.78916 3.73029 2.87708 7.11835 2.87708 11.2977C2.87708 15.4771 4.78916 18.8652 7.14783 18.8652Z" fill="white"/>
</g>
<path d="M7.00941 18.5675C9.36808 18.5675 11.2802 15.1794 11.2802 11C11.2802 6.82062 9.36808 3.43256 7.00941 3.43256C4.65073 3.43256 2.73865 6.82062 2.73865 11C2.73865 15.1794 4.65073 18.5675 7.00941 18.5675Z" fill="#FEB724"/>
<path d="M3.02454 11.6409C3.02454 7.46183 4.93661 4.07348 7.2953 4.07348C8.57087 4.07348 9.71485 5.06527 10.4975 6.63587C9.72385 4.69839 8.45042 3.43256 7.00941 3.43256C4.65072 3.43256 2.73865 6.82091 2.73865 11C2.73865 12.9196 3.14283 14.6707 3.80719 16.0044C3.31471 14.7713 3.02454 13.266 3.02454 11.6403V11.6409Z" fill="#FB9D12"/>
</svg>
