<svg width="20" height="22" viewBox="0 0 20 22" fill="none" xmlns="http://www.w3.org/2000/svg">
<path d="M10.9489 0H9.05103V22H10.9489C15.9481 22 19.9999 17.075 19.9999 11C19.9999 4.92503 15.9481 0 10.9489 0Z" fill="#DB6402"/>
<g style="mix-blend-mode:multiply">
<path d="M9.05103 21.4033V22H10.9489C13.0723 22 15.0238 21.1087 16.568 19.6207L9.05165 19.7052V21.4033H9.05103Z" fill="#DBA97F"/>
</g>
<g style="mix-blend-mode:soft-light">
<path d="M13.0604 7.51945L19.5175 7.45606C19.0907 5.93155 18.397 4.55879 17.5028 3.41782L13.0204 3.462L13.0604 7.51945Z" fill="white"/>
</g>
<g style="mix-blend-mode:soft-light">
<path d="M13.0198 2.68919L16.8392 2.65205C16.6436 2.4478 16.4411 2.2538 16.2312 2.07068L13.0135 2.10205L13.0192 2.68919H13.0198Z" fill="white"/>
</g>
<path d="M9.05109 22C14.0499 22 18.1022 17.0751 18.1022 11C18.1022 4.92487 14.0499 0 9.05109 0C4.05231 0 0 4.92487 0 11C0 17.0751 4.05231 22 9.05109 22Z" fill="#FEE475"/>
<path d="M9.05113 21.6389C13.886 21.6389 17.8054 16.8757 17.8054 11C17.8054 5.1243 13.886 0.361115 9.05113 0.361115C4.21629 0.361115 0.296875 5.1243 0.296875 11C0.296875 16.8757 4.21629 21.6389 9.05113 21.6389Z" fill="#FED425"/>
<g style="mix-blend-mode:soft-light">
<path d="M4.71681 20.2412L17.3255 7.52649C16.8968 6.01927 16.1988 4.66572 15.2995 3.55164L1.87476 17.0891C2.61714 18.3786 3.58761 19.4581 4.71681 20.2412Z" fill="white"/>
</g>
<g style="mix-blend-mode:soft-light">
<path d="M17.5016 13.7782L9.7428 21.6024C13.4778 21.247 16.5542 18.045 17.5016 13.7782Z" fill="white"/>
</g>
<g style="mix-blend-mode:soft-light">
<path d="M0.686172 7.85687L8.04815 0.432831C7.16516 0.555124 6.32217 0.837487 5.53916 1.25495L1.8185 5.00699C1.33107 5.87393 0.946131 6.83242 0.685547 7.85751L0.686172 7.85687Z" fill="white"/>
</g>
<g style="mix-blend-mode:soft-light">
<path d="M1.38849 16.144L14.6245 2.79609C14.4652 2.63602 14.2996 2.48491 14.1309 2.33829L1.10791 15.4711C1.1954 15.6996 1.28851 15.9244 1.38849 16.144Z" fill="white"/>
</g>
<g style="mix-blend-mode:soft-light">
<path d="M9.05109 0.402095C13.9947 0.402095 18.0097 5.21892 18.0984 11.201C18.0997 11.1338 18.1028 11.0672 18.1028 11C18.1028 4.92503 14.0503 0 9.05109 0C4.05187 0 0 4.92503 0 11C0 11.0672 0.00312451 11.1338 0.00437432 11.201C0.0931104 5.21892 4.10811 0.402095 9.05109 0.402095Z" fill="white"/>
</g>
<g style="mix-blend-mode:soft-light">
<path d="M9.25289 18.8652C12.6917 18.8652 15.4794 15.4771 15.4794 11.2977C15.4794 7.11832 12.6917 3.73026 9.25289 3.73026C5.81408 3.73026 3.02637 7.11832 3.02637 11.2977C3.02637 15.4771 5.81408 18.8652 9.25289 18.8652Z" fill="white"/>
</g>
<path d="M9.05111 18.5674C12.4899 18.5674 15.2776 15.1794 15.2776 11C15.2776 6.82059 12.4899 3.43253 9.05111 3.43253C5.6123 3.43253 2.82458 6.82059 2.82458 11C2.82458 15.1794 5.6123 18.5674 9.05111 18.5674Z" fill="#FEB724"/>
<path d="M3.24139 11.6409C3.24139 7.4618 6.02908 4.07345 9.46792 4.07345C11.3276 4.07345 12.9955 5.06524 14.1366 6.63584C13.0086 4.69836 11.152 3.43253 9.05111 3.43253C5.61227 3.43253 2.82458 6.82088 2.82458 11C2.82458 12.9195 3.41387 14.6707 4.38247 16.0044C3.66445 14.7712 3.24139 13.2659 3.24139 11.6403V11.6409Z" fill="#FB9D12"/>
</svg>
